<svg id="Layer_1" data-name="Layer 1" xmlns="http://www.w3.org/2000/svg" width="109.55mm" height="17.86mm" viewBox="0 0 310.55 50.63">
  <defs>
    <style>
      .cls-1, .cls-2 {
        fill: #ffed00;
      }

      .cls-1, .cls-3 {
        stroke: #ffed00;
        stroke-miterlimit: 10;
      }

      .cls-3 {
        fill: none;
      }
    </style>
  </defs>
  <title>stars</title>
  <polygon class="cls-1" points="26.62 1.13 34.51 17.12 52.16 19.69 39.39 32.14 42.4 49.71 26.62 41.41 10.83 49.71 13.85 32.14 1.07 19.69 18.72 17.12 26.62 1.13"/>
  <polygon class="cls-1" points="90.94 1.13 98.84 17.12 116.49 19.69 103.72 32.14 106.73 49.71 90.94 41.41 75.16 49.71 78.17 32.14 65.4 19.69 83.05 17.12 90.94 1.13"/>
  <polygon class="cls-1" points="155.27 1.13 163.17 17.12 180.81 19.69 168.04 32.14 171.06 49.71 155.27 41.41 139.49 49.71 142.5 32.14 129.73 19.69 147.38 17.12 155.27 1.13"/>
  <polygon class="cls-1" points="219.6 1.13 227.49 17.12 245.14 19.69 232.37 32.14 235.39 49.71 219.6 41.41 203.81 49.71 206.83 32.14 194.06 19.69 211.71 17.12 219.6 1.13"/>
  <path class="cls-2" d="M271.44,26.27c3.21,0,3.22-5,0-5s-3.23,5,0,5Z" transform="translate(0.71 -0.69)"/>
  <path class="cls-2" d="M266,25.29c3.21,0,3.22-5,0-5s-3.23,5,0,5Z" transform="translate(0.71 -0.69)"/>
  <path class="cls-2" d="M264.35,25.07c3.22,0,3.22-5,0-5s-3.22,5,0,5Z" transform="translate(0.71 -0.69)"/>
  <path class="cls-2" d="M270.81,24.69a8.32,8.32,0,0,0-1.17-.65c-.36-.16-.73-.32-1.12-.45-.23-.07-.47-.12-.7-.21l.6.25a5.74,5.74,0,0,1-.92-.55l-.94-.63a2.5,2.5,0,0,0-3.42.9,2.49,2.49,0,0,0-.25,1.92,2.71,2.71,0,0,0,1.14,1.5c.5.33,1,.68,1.5,1a5.13,5.13,0,0,0,1.3.55,7.86,7.86,0,0,1,.82.27l-.6-.25a7.82,7.82,0,0,1,1.24.68A2.5,2.5,0,0,0,272,26.19a2.72,2.72,0,0,0-1.15-1.5Z" transform="translate(0.71 -0.69)"/>
  <path class="cls-2" d="M265,24.66A47.36,47.36,0,0,0,275.23,23a2.5,2.5,0,1,0-1.33-4.82,43.45,43.45,0,0,1-4.65,1.06c-.36.07-.72.12-1.09.18l-.36.05.21,0-.64.07c-.79.09-1.58.16-2.37.2a2.5,2.5,0,0,0,0,5Z" transform="translate(0.71 -0.69)"/>
  <path class="cls-2" d="M272,20.53V43.85c0,3.22,5,3.22,5,0V20.53c0-3.22-5-3.22-5,0Z" transform="translate(0.71 -0.69)"/>
  <path class="cls-2" d="M273.42,45.78a38.85,38.85,0,0,1,.74-5.79c.49-1.84.53-3.69.91-5.54a7.3,7.3,0,0,0,.1-3.22,7.45,7.45,0,0,0-1.33-2.41c-.56-.79-1.45-1.16-2-1.73a23.63,23.63,0,0,0-1.79-1.95,2.56,2.56,0,0,0-3.54,0,2.53,2.53,0,0,0,0,3.54,16.1,16.1,0,0,1,1.59,1.71,6.67,6.67,0,0,0,1.14,1.05,2.41,2.41,0,0,0,.5.33c.38.23.32.11-.19-.34-.06.32.72.92.88,1.17l-.18-.33c.09.31.11.38.05.22-.13.83-.34,1.78-.44,2.67s-.06,1.58-.21,2.26-.42,1.47-.55,2.23c-.38,2-.49,4.09-.7,6.13a2.51,2.51,0,0,0,2.5,2.5,2.56,2.56,0,0,0,2.5-2.5Z" transform="translate(0.71 -0.69)"/>
  <path class="cls-2" d="M272.55,47.05c3.22,0,3.22-5,0-5s-3.22,5,0,5Z" transform="translate(0.71 -0.69)"/>
  <path class="cls-2" d="M259,21.47c.52,0,1.05,0,1.57,0a7.18,7.18,0,0,0,1.53.08c.23,0,.43-.12.66-.15l.43-.06a2.35,2.35,0,0,0,1.31-.52.63.63,0,0,0,.09-.75.65.65,0,0,0-.7-.29l-1.5.21a1.23,1.23,0,0,0-1.11.63c0,.05-.08.18-.09.2s0,0-.07.07a1.42,1.42,0,0,1-.3.09,5.63,5.63,0,0,0-1.36.17.63.63,0,0,0,.33,1.21.84.84,0,0,1,.39,0,.19.19,0,0,1,.15.06c.11.12.2.3.31.44a2.38,2.38,0,0,0,.35.36c.25.24.52.45.75.71a7.76,7.76,0,0,1,.65.86.65.65,0,0,0,.86.22.62.62,0,0,0,.22-.85A10.65,10.65,0,0,1,262.45,22a.63.63,0,0,0-1.21.33,12.52,12.52,0,0,0,1.18,2.41l1.08-.63c-.27-.38-.54-.76-.84-1.11s-.64-.57-.94-.89-.45-.7-.88-.9a2.08,2.08,0,0,0-1.35-.07l.33,1.21a5.87,5.87,0,0,1,1.26-.16,1.72,1.72,0,0,0,1-.51s.35-.47.3-.5a.41.41,0,0,0-.11.07l.14,0,.3,0,1.5-.2-.61-1a.71.71,0,0,1-.3.12c-.17,0-.24,0-.42.07a4.08,4.08,0,0,0-.61.09,2,2,0,0,1-.54.11,22.74,22.74,0,0,0-2.74-.11.64.64,0,0,0-.62.63.62.62,0,0,0,.62.62Z" transform="translate(0.71 -0.69)"/>
  <path class="cls-2" d="M268.61,49.38a9.64,9.64,0,0,0,.85-2.32l-.61.46h0l-.31-.09c-.22-.12-.25-.41-.21-.2s0-.1,0,0a2.29,2.29,0,0,1,0,.25,1.93,1.93,0,0,1,0,.24c0,.1,0,0,0,0s0,.09,0,.13c-.06.32-.23.61-.28.93a.62.62,0,0,0,.11.54.61.61,0,0,0,.49.25,1.29,1.29,0,0,0,.74-.25,3.92,3.92,0,0,0,.32-.25l.1-.09s.18-.12,0,0l.24-.14,0,0,.07,0,.13-.05a1.74,1.74,0,0,0,.72-.42.63.63,0,0,0,0-.89.64.64,0,0,0-.88,0,.12.12,0,0,1-.05,0s0,0,.05,0-.09.05-.12.07l-.07,0,.07,0-.12,0a2.66,2.66,0,0,0-.59.28,4.87,4.87,0,0,0-.5.4c-.09.08.11-.07,0,0l-.11.07c-.06,0,0,0,.06,0l-.06,0c-.16,0,.12,0,0,0l.6.79a3.93,3.93,0,0,1,.19-.58,2.85,2.85,0,0,0,.15-.75,2.66,2.66,0,0,0,0-.69,1.11,1.11,0,0,0-.12-.43.72.72,0,0,0-.62-.36.63.63,0,0,0-.6.46,8.91,8.91,0,0,1-.31,1.09,2.6,2.6,0,0,1-.1.25.69.69,0,0,1,0,.13c-.05.13,0-.1,0,0s-.17.36-.26.53a.65.65,0,0,0,.23.86.63.63,0,0,0,.85-.23Z" transform="translate(0.71 -0.69)"/>
  <path class="cls-2" d="M277.12,20V17.12h-1.25v1.36a.63.63,0,0,0,1.25,0V17.12a.63.63,0,0,0-.62-.63.65.65,0,0,0-.63.63V20a.63.63,0,0,0,.63.62.62.62,0,0,0,.62-.62Z" transform="translate(0.71 -0.69)"/>
  <path class="cls-2" d="M276.27,18.25V18.2l0,.16s0,0,0-.06l-.06.15,0-.06-.1.13,0,0-.12.1,0,0-.92-.7a7.19,7.19,0,0,0-.2.8.53.53,0,0,0,0,.25.49.49,0,0,0,.08.23.55.55,0,0,0,.16.18.53.53,0,0,0,.21.11.62.62,0,0,0,.48-.06.65.65,0,0,0,.29-.38,7.16,7.16,0,0,1,.19-.8l0-.17,0-.16-.06-.15a.55.55,0,0,0-.16-.18.39.39,0,0,0-.14-.08.29.29,0,0,0-.16,0,.43.43,0,0,0-.16,0,.51.51,0,0,0-.24.07,1.18,1.18,0,0,0-.31.32l-.07.18s0,0,0,0l0,.19v.05a.53.53,0,0,0,.06.24.49.49,0,0,0,.13.2.46.46,0,0,0,.2.13.47.47,0,0,0,.24.05.65.65,0,0,0,.44-.18.62.62,0,0,0,.18-.44Z" transform="translate(0.71 -0.69)"/>
  <path class="cls-2" d="M273.61,24.21c3.22,0,3.22-5,0-5s-3.22,5,0,5Z" transform="translate(0.71 -0.69)"/>
  <path class="cls-2" d="M277.12,16.8v-.87a.65.65,0,0,0-.18-.44.53.53,0,0,0-.2-.13.39.39,0,0,0-.24,0,.6.6,0,0,0-.44.18.66.66,0,0,0-.19.44v.87a.61.61,0,0,0,.19.44.66.66,0,0,0,.44.18.6.6,0,0,0,.44-.18.65.65,0,0,0,.18-.44Z" transform="translate(0.71 -0.69)"/>
  <path class="cls-2" d="M276.63,15.3v2a.25.25,0,0,0,.5,0v-2a.25.25,0,0,0-.5,0Z" transform="translate(0.71 -0.69)"/>
  <path class="cls-2" d="M276.62,20.05v3.23a.25.25,0,0,0,.5,0V20.05a.25.25,0,0,0-.5,0Z" transform="translate(0.71 -0.69)"/>
  <path class="cls-2" d="M276.73,23.86a.25.25,0,0,0,0-.5.25.25,0,0,0,0,.5Z" transform="translate(0.71 -0.69)"/>
  <path class="cls-2" d="M276.61,23.22v3.25a.25.25,0,0,0,.5,0V22.78a.25.25,0,0,0-.5,0v4.9a.25.25,0,0,0,.5,0v-4.9h-.5v3.69a.25.25,0,0,0,.5,0V23.22a.25.25,0,0,0-.5,0Z" transform="translate(0.71 -0.69)"/>
  <path class="cls-2" d="M276.61,27.55v6.91a.25.25,0,0,0,.5,0V27.55a.25.25,0,0,0-.5,0Z" transform="translate(0.71 -0.69)"/>
  <path class="cls-2" d="M276.61,34.4v6.41a.25.25,0,0,0,.5,0V34.4a.25.25,0,0,0-.5,0Z" transform="translate(0.71 -0.69)"/>
  <path class="cls-2" d="M276.61,40.75V45a.25.25,0,0,0,.5,0v-4.2a.25.25,0,0,0-.5,0Z" transform="translate(0.71 -0.69)"/>
  <polygon class="cls-3" points="283.93 1.13 291.82 17.12 309.47 19.69 296.7 32.14 299.71 49.71 283.93 41.41 268.14 49.71 271.16 32.14 258.39 19.69 276.04 17.12 283.93 1.13"/>
</svg>
