<svg id="Layer_1" data-name="Layer 1" xmlns="http://www.w3.org/2000/svg" width="154.12mm" height="25.17mm" viewBox="0 0 436.86 71.33">
  <defs>
    <style>
      .cls-1 {
        fill: #fec905;
      }

      .cls-1, .cls-2 {
        stroke: #fec902;
      }

      .cls-1, .cls-2, .cls-4 {
        stroke-miterlimit: 10;
      }

      .cls-2 {
        fill: #fec902;
      }

      .cls-3 {
        fill: #fec904;
      }

      .cls-4 {
        fill: none;
        stroke: #fec904;
      }

      .cls-5 {
        fill: #fff;
      }
    </style>
  </defs>
  <title>stars</title>
  <g>
    <polygon class="cls-1" points="37.82 1.32 48.91 23.79 73.71 27.39 55.76 44.88 60 69.58 37.82 57.92 15.64 69.58 19.87 44.88 1.93 27.39 26.73 23.79 37.82 1.32"/>
    <polygon class="cls-2" points="128.21 1.32 139.3 23.79 164.1 27.39 146.15 44.88 150.39 69.58 128.21 57.92 106.03 69.58 110.26 44.88 92.32 27.39 117.12 23.79 128.21 1.32"/>
    <polygon class="cls-1" points="218.59 1.32 229.69 23.79 254.49 27.39 236.54 44.88 240.78 69.58 218.59 57.92 196.41 69.58 200.65 44.88 182.71 27.39 207.5 23.79 218.59 1.32"/>
    <polygon class="cls-1" points="308.98 1.32 320.07 23.79 344.87 27.39 326.93 44.88 331.16 69.58 308.98 57.92 286.8 69.58 291.04 44.88 273.09 27.39 297.89 23.79 308.98 1.32"/>
    <g>
      <path class="cls-3" d="M382.81,34.66c3.22,0,3.23-5,0-5s-3.22,5,0,5Z"/>
      <path class="cls-3" d="M375.16,33.28c3.21,0,3.22-5,0-5s-3.23,5,0,5Z"/>
      <path class="cls-3" d="M372.86,33c3.22,0,3.22-5,0-5s-3.22,5,0,5Z"/>
      <path class="cls-3" d="M381.43,34.33a10.23,10.23,0,0,0-1.65-.92,14.17,14.17,0,0,0-1.33-.53c-.32-.1-.66-.17-1-.29l.6.25a8.35,8.35,0,0,1-1.29-.78l-1.33-.88a2.5,2.5,0,1,0-2.53,4.31c.7.47,1.39,1,2.11,1.4a17.68,17.68,0,0,0,2.73,1l-.6-.25a10.62,10.62,0,0,1,1.75,1,2.5,2.5,0,0,0,3.67-2.83,2.79,2.79,0,0,0-1.15-1.49Z"/>
      <path class="cls-3" d="M373.76,32.39A65,65,0,0,0,387.88,30a2.5,2.5,0,0,0-1.33-4.82A63.17,63.17,0,0,1,380,26.7c-.5.09-1,.17-1.52.24L378,27c.19,0,.2,0,0,0l-.9.11c-1.11.12-2.22.21-3.34.27a2.5,2.5,0,0,0,0,5Z"/>
      <path class="cls-3" d="M384.65,27.6V60.37c0,3.21,5,3.22,5,0V27.6c0-3.21-5-3.22-5,0Z"/>
      <path class="cls-3" d="M384.58,63.08a57.52,57.52,0,0,1,1-8.18,25,25,0,0,0,.85-4.2,34.82,34.82,0,0,1,.52-3.94,8.76,8.76,0,0,0,.07-4,9.79,9.79,0,0,0-1.66-2.87c-.75-1.07-1.85-1.43-2.7-2.35a31,31,0,0,0-2.52-2.73,2.55,2.55,0,0,0-3.53,0,2.51,2.51,0,0,0,0,3.53,22.78,22.78,0,0,1,2.26,2.45,8.57,8.57,0,0,0,1.19,1.14c.22.17,1.55,1.07,1,.48a4.26,4.26,0,0,1,1.19,1.93,12.3,12.3,0,0,1-.53,3.17c-.19,1.22-.13,2.46-.32,3.67s-.69,2.44-.9,3.69c-.46,2.71-.64,5.49-.93,8.22a2.51,2.51,0,0,0,2.5,2.5,2.55,2.55,0,0,0,2.5-2.5Z"/>
      <path class="cls-3" d="M384.38,63.85c3.21,0,3.22-5,0-5s-3.23,5,0,5Z"/>
      <path class="cls-3" d="M365.38,28.67c.74,0,1.47,0,2.21,0a9.82,9.82,0,0,0,2.09.12c.31-.05.6-.16.91-.22s.45-.05.68-.08a3.07,3.07,0,0,0,1.65-.65.64.64,0,0,0,.1-.76.65.65,0,0,0-.7-.29l-2.11.29c-.61.09-1.12.18-1.41.78-.09.19-.13.35-.31.46a1.35,1.35,0,0,1-.56.17,7.6,7.6,0,0,0-1.84.23.62.62,0,0,0,.33,1.2c.33-.07.74-.15,1,.11a4.51,4.51,0,0,1,.44.61,4.7,4.7,0,0,0,.49.51,12.53,12.53,0,0,1,1.06,1,14.77,14.77,0,0,1,1,1.25c.46.64,1.5.07,1.08-.63a15.22,15.22,0,0,1-1.51-3c-.24-.77-1.45-.44-1.2.33a16.76,16.76,0,0,0,1.63,3.32l1.08-.63a17,17,0,0,0-1.15-1.5c-.41-.46-.9-.81-1.32-1.25s-.61-1-1.18-1.23a2.63,2.63,0,0,0-1.71-.07l.33,1.2a8.83,8.83,0,0,1,1.78-.21,2.24,2.24,0,0,0,1.34-.65,1.78,1.78,0,0,0,.23-.33,1.66,1.66,0,0,1,.15-.33,2,2,0,0,1,.62-.11l2.11-.29L372,27a2.26,2.26,0,0,1-1.19.34,7,7,0,0,0-.8.12,3.23,3.23,0,0,1-.81.16c-.65,0-1.28-.13-1.93-.16s-1.28,0-1.93,0c-.8,0-.8,1.29,0,1.25Z"/>
      <path class="cls-3" d="M378.63,68a13.47,13.47,0,0,0,1.16-3.2l-.6.46h0l-.31-.08c-.2-.12-.22-.37-.17-.14v.06c0-.06,0-.06,0,0s0,.22,0,.34,0,.23,0,.34a.4.4,0,1,1,0,0,1.25,1.25,0,0,1,0,.19c-.09.45-.32.85-.4,1.3a.64.64,0,0,0,.6.79,1.6,1.6,0,0,0,.92-.32,3,3,0,0,0,.39-.31l.15-.13.08-.06a2.33,2.33,0,0,1,.34-.2c-.12.06,0,0,.08,0l.19-.07a2.31,2.31,0,0,0,.9-.54.62.62,0,0,0,0-.88.63.63,0,0,0-.88,0s-.18.14-.06.06l-.17.1-.09,0,0,0-.17.07a3.18,3.18,0,0,0-.77.36,8.34,8.34,0,0,0-.65.53c-.11.09.08,0,0,0l-.15.09q-.09,0,0,0l-.09,0-.08,0c.09,0,.1,0,0,0l.61.79a4.63,4.63,0,0,1,.27-.82,4.14,4.14,0,0,0,.2-1,4,4,0,0,0,0-.92c-.07-.48-.26-.86-.79-.9a.63.63,0,0,0-.61.46,11.62,11.62,0,0,1-.44,1.53c0,.12-.08.24-.13.36l-.07.18c-.05.12,0,0,0,.08-.11.26-.22.51-.35.75a.63.63,0,1,0,1.08.63Z"/>
      <path class="cls-3" d="M390.55,26.9V22.81H389.3v1.91a.63.63,0,0,0,1.25,0V22.81a.63.63,0,0,0-.62-.63.65.65,0,0,0-.63.63V26.9a.63.63,0,0,0,.63.62.62.62,0,0,0,.62-.62Z"/>
      <path class="cls-3" d="M389.36,24.39v-.06l0,.16a.29.29,0,0,1,0-.09l-.06.15s0-.05,0-.08l-.09.13.05-.06-.12.1,0,0-.91-.71A8.88,8.88,0,0,0,388,25a.53.53,0,0,0,0,.25.49.49,0,0,0,.08.23.6.6,0,0,0,.37.29.62.62,0,0,0,.48-.06.65.65,0,0,0,.29-.38,10.74,10.74,0,0,1,.27-1.12l0-.17,0-.17a.6.6,0,0,0-.22-.32.56.56,0,0,0-.3-.12.63.63,0,0,0-.4.07,1,1,0,0,0-.34.36.65.65,0,0,0-.09.23.77.77,0,0,0,0,.26.65.65,0,0,0,.18.44.68.68,0,0,0,.44.19.65.65,0,0,0,.45-.19.63.63,0,0,0,.18-.44Z"/>
      <path class="cls-3" d="M385.87,31.76c3.22,0,3.22-5,0-5s-3.22,5,0,5Z"/>
      <path class="cls-3" d="M390.55,22.36V21.14a.65.65,0,0,0-.18-.44.62.62,0,0,0-.44-.18.6.6,0,0,0-.44.18.61.61,0,0,0-.19.44v1.22a.61.61,0,0,0,.19.44.59.59,0,0,0,.44.18.6.6,0,0,0,.44-.18.65.65,0,0,0,.18-.44Z"/>
      <path class="cls-3" d="M390.21,20.25v2.83a.25.25,0,0,0,.5,0V20.25a.25.25,0,0,0-.5,0Z"/>
      <path class="cls-3" d="M390.2,26.93v4.54a.25.25,0,0,0,.5,0V26.93a.25.25,0,0,0-.5,0Z"/>
      <path class="cls-3" d="M390.25,32.18a.25.25,0,0,0,0-.5.25.25,0,0,0,0,.5Z"/>
      <path class="cls-3" d="M390.19,31.38v4.56a.25.25,0,0,0,.5,0V30.77a.25.25,0,0,0-.5,0v6.88a.25.25,0,0,0,.5,0V30.77h-.5v5.17a.25.25,0,0,0,.5,0V31.38a.25.25,0,0,0-.5,0Z"/>
      <path class="cls-3" d="M390.19,37.47v9.71a.25.25,0,0,0,.5,0V37.47a.25.25,0,0,0-.5,0Z"/>
      <path class="cls-3" d="M390.19,47.09v9a.25.25,0,0,0,.5,0v-9a.25.25,0,0,0-.5,0Z"/>
      <path class="cls-3" d="M390.19,56v5.91a.25.25,0,0,0,.5,0V56a.25.25,0,0,0-.5,0Z"/>
    </g>
    <polygon class="cls-4" points="399.35 1.32 410.44 23.79 435.24 27.39 417.3 44.88 421.53 69.58 399.35 57.92 377.17 69.58 381.41 44.88 363.46 27.39 388.26 23.79 399.35 1.32"/>
  </g>
  <path class="cls-5" d="M360.29,50c3.22,0,3.23-5,0-5s-3.22,5,0,5Z"/>
  <path class="cls-3" d="M371.48,32.68c3.22,0,3.22-5,0-5s-3.22,5,0,5Z"/>
  <path class="cls-3" d="M368.68,31.64c3.21,0,3.22-5,0-5s-3.23,5,0,5Z"/>
  <path class="cls-3" d="M370.37,31.72l8.88-.37,4.36-.18c1.72-.07,3.34,0,4.73-1.14a2.52,2.52,0,0,0,0-3.54,2.55,2.55,0,0,0-3.53,0c1.06-.32,1.31-.46.74-.4h-.33l-1,0-1.94.08-4,.17-7.91.33a2.5,2.5,0,0,0,0,5Z"/>
  <path class="cls-3" d="M387.33,29c3.22,0,3.22-5,0-5s-3.22,5,0,5Z"/>
  <path class="cls-3" d="M385.17,29.25c3.22,0,3.23-5,0-5s-3.22,5,0,5Z"/>
  <path class="cls-3" d="M382.32,29.65c3.21,0,3.22-5,0-5s-3.23,5,0,5Z"/>
  <path class="cls-3" d="M378.76,30c3.22,0,3.22-5,0-5s-3.22,5,0,5Z"/>
  <path class="cls-3" d="M379.34,30c3.22,0,3.23-5,0-5s-3.22,5,0,5Z"/>
  <path class="cls-3" d="M376.31,30.41c3.22,0,3.22-5,0-5s-3.22,5,0,5Z"/>
  <path class="cls-3" d="M373.86,31c3.22,0,3.23-5,0-5s-3.22,5,0,5Z"/>
  <path class="cls-3" d="M370.72,33.68c3.21,0,3.22-5,0-5s-3.23,5,0,5Z"/>
  <path class="cls-3" d="M372.76,35c3.21,0,3.22-5,0-5s-3.23,5,0,5Z"/>
  <path class="cls-3" d="M374.27,36.77c3.22,0,3.22-5,0-5s-3.22,5,0,5Z"/>
  <path class="cls-3" d="M375.9,38.69c3.22,0,3.23-5,0-5s-3.22,5,0,5Z"/>
  <path class="cls-3" d="M378.06,40.79c3.22,0,3.22-5,0-5s-3.22,5,0,5Z"/>
  <path class="cls-3" d="M379.87,42.6c3.22,0,3.22-5,0-5s-3.22,5,0,5Z"/>
  <path class="cls-3" d="M382,44.29c3.22,0,3.23-5,0-5s-3.22,5,0,5Z"/>
  <path class="cls-3" d="M383.19,45.45c3.22,0,3.22-5,0-5s-3.22,5,0,5Z"/>
  <path class="cls-3" d="M386.07,39.5a12.83,12.83,0,0,0-1.65-5.16A8.34,8.34,0,0,0,382.1,32a6.37,6.37,0,0,0-1.27-.66c-.43-.19-.9-.28-1.33-.46l1.1.64-.06-.06.64,1.11,0-.11v1.32a.53.53,0,0,1,.06-.24l-.25.6c0-.09.27-.41.26-.5s-.42.47-.19.24-.52.33-.16.16l-.6.25a.5.5,0,0,1,.21,0l-.67.09a.82.82,0,0,1,.27,0l-.66-.09.39.13-.59-.25a8.73,8.73,0,0,1,1.25.65c.2.12.39.26.58.4s-.46-.38-.15-.11a3.47,3.47,0,0,1,.29.25,4.31,4.31,0,0,1,1,1c-.07-.13-.35-.48-.12-.15l.19.26q.21.33.39.66A2.52,2.52,0,0,0,386,38a2.55,2.55,0,0,0,.9-3.42,11,11,0,0,0-5-4.71,4.09,4.09,0,0,0-3-.42,3.74,3.74,0,0,0-2.12,1.79A3,3,0,0,0,377,35a5.89,5.89,0,0,0,2.21,1l-.6-.25a5.46,5.46,0,0,1,.92.5l.21.15c-.33-.26-.4-.31-.2-.15s.23.21.33.32.2.24.31.34c-.26-.34-.31-.4-.15-.19l.15.23a6.78,6.78,0,0,1,.49,1l-.25-.6a15.9,15.9,0,0,1,.83,3.48,2.49,2.49,0,0,0,1.15,1.49,2.49,2.49,0,0,0,3.42-.89,2.92,2.92,0,0,0,.25-1.93Z"/>
  <path class="cls-3" d="M390.22,33.35a7.37,7.37,0,0,1,.09-4.24l-4.91-.66L385.53,54c0,3.21,5,3.22,5,0l-.13-25.52A2.51,2.51,0,0,0,388.23,26a2.55,2.55,0,0,0-2.74,1.79c-.89,2.23-.52,4.61-.09,6.9a2.5,2.5,0,0,0,4.82-1.33Z"/>
  <path class="cls-3" d="M385.3,55.13v5.72a2.57,2.57,0,0,0,.73,1.77,2.5,2.5,0,0,0,4.27-1.77V55.13a2.5,2.5,0,1,0-5,0Z"/>
  <path class="cls-3" d="M388,63.52c3.22,0,3.22-5,0-5s-3.22,5,0,5Z"/>
  <path class="cls-3" d="M386.46,64.51c3.21,0,3.22-5,0-5s-3.23,5,0,5Z"/>
  <path class="cls-3" d="M384.12,65.68c3.22,0,3.23-5,0-5s-3.22,5,0,5Z"/>
  <path class="cls-3" d="M381.91,66.79c3.22,0,3.22-5,0-5s-3.22,5,0,5Z"/>
  <path class="cls-3" d="M380.92,66.73c3.21,0,3.22-5,0-5s-3.23,5,0,5Z"/>
  <path class="cls-3" d="M383.28,64.13c.75-3.07,1.91-6.27,1.34-9.45a2.5,2.5,0,0,0-4.91.66,6.61,6.61,0,0,1-.26,1.7l4.82,1.32q1.23-6.68,2.72-13.3c.43-2-1.78-4.17-3.68-2.83a4.12,4.12,0,0,0-1.87,3.29,2.5,2.5,0,0,0,5,0l-.6,1-3.67-2.82q-1.5,6.62-2.72,13.31a2.56,2.56,0,0,0,1.75,3.07,2.53,2.53,0,0,0,3.07-1.75,11.85,11.85,0,0,0,.44-3L379.8,56a7.51,7.51,0,0,1-.4,2.93c-.31,1.29-.63,2.58-.94,3.87a2.5,2.5,0,1,0,4.82,1.32Z"/>
  <path class="cls-3" d="M378.61,68.84l.27-.2a2.58,2.58,0,0,0,.27-.27l.2-.27a.68.68,0,0,0,.07-.48.51.51,0,0,0-.11-.22.55.55,0,0,0-.18-.16l-.15-.06a.62.62,0,0,0-.33,0l-.15.06a.72.72,0,0,0-.23.23.76.76,0,0,1-.08.11l.1-.13a1.29,1.29,0,0,1-.33.33l.13-.1-.11.08a.42.42,0,0,0-.18.17.53.53,0,0,0-.11.21.42.42,0,0,0,0,.25.48.48,0,0,0,.07.23l.1.13a.74.74,0,0,0,.27.16l.17,0a.62.62,0,0,0,.32-.09Z"/>
  <path class="cls-3" d="M364.65,28.36c.42.28.86.53,1.3.77a.73.73,0,0,0,.48.06.62.62,0,0,0,.38-.29.66.66,0,0,0,.06-.48.6.6,0,0,0-.29-.37c-.44-.24-.88-.49-1.3-.77a.66.66,0,0,0-.48-.06.6.6,0,0,0-.37.29.62.62,0,0,0-.07.48.67.67,0,0,0,.29.37Z"/>
  <path class="cls-3" d="M388.7,23.25c0,.33,0,.66,0,1a3.87,3.87,0,0,0,0,.48,1.34,1.34,0,0,0,.2.64.62.62,0,0,0,.37.28.58.58,0,0,0,.48-.06.63.63,0,0,0,.23-.85.37.37,0,0,1-.06-.1l.06.15a1.46,1.46,0,0,1,0-.2l0,.16a9.28,9.28,0,0,1,0-1.49.63.63,0,1,0-1.25,0Z"/>
  <path class="cls-3" d="M390.71,27.07V22.83a.63.63,0,0,0-.63-.62.62.62,0,0,0-.62.62v4.24a.62.62,0,0,0,.62.62.63.63,0,0,0,.63-.62Z"/>
</svg>
